<svg width="257" height="38" viewBox="0 0 257 38" fill="none" xmlns="http://www.w3.org/2000/svg">
<path d="M46.8266 7.57095H52.8987V30.998H46.8266V21.9953H40.1063V30.998H34V7.57095H40.1063V16.239H46.8266V7.57095Z" fill="white"/>
<path d="M61.5648 11.9552C60.9281 12.5799 60.1662 12.8922 59.2793 12.8922C58.3923 12.8922 57.6191 12.5799 56.9595 11.9552C56.3228 11.3081 56.0044 10.5495 56.0044 9.67938C56.0044 8.80924 56.3228 8.0618 56.9595 7.43708C57.6191 6.81236 58.3923 6.5 59.2793 6.5C60.1662 6.5 60.9281 6.81236 61.5648 7.43708C62.2244 8.0618 62.5541 8.80924 62.5541 9.67938C62.5541 10.5495 62.2244 11.3081 61.5648 11.9552ZM56.4479 30.998V14.2644H62.1107V30.998H56.4479Z" fill="white"/>
<path d="M89.9716 7.57095V30.998H83.8994V18.3809L78.1002 27.7851H77.4861L71.721 18.4143V30.998H65.6147V7.57095H71.721L77.7932 17.5776L83.8994 7.57095H89.9716Z" fill="white"/>
<path d="M101.926 31.5C99.4015 31.5 97.3092 30.9757 95.649 29.927C93.9889 28.8784 92.829 27.4616 92.1695 25.6767L97.3888 22.6981C98.2758 24.7731 99.845 25.8106 102.096 25.8106C103.961 25.8106 104.894 25.2863 104.894 24.2376C104.894 23.546 104.359 22.9882 103.29 22.5643C102.836 22.3858 101.835 22.0846 100.288 21.6606C98.1052 21.0359 96.3768 20.1658 95.1032 19.0502C93.8297 17.9123 93.1929 16.3394 93.1929 14.3313C93.1929 12.1671 93.9775 10.4157 95.5467 9.07698C97.1387 7.73829 99.1172 7.06894 101.482 7.06894C103.484 7.06894 105.258 7.52633 106.804 8.4411C108.351 9.35587 109.533 10.6834 110.352 12.4237L105.235 15.3688C104.484 13.6285 103.245 12.7584 101.517 12.7584C100.789 12.7584 100.232 12.9034 99.845 13.1934C99.4811 13.4835 99.2992 13.8516 99.2992 14.2979C99.2992 14.811 99.5721 15.2461 100.118 15.6031C100.686 15.9601 101.778 16.3728 103.393 16.8414C104.553 17.176 105.485 17.4884 106.19 17.7784C106.895 18.0685 107.668 18.4924 108.51 19.0502C109.351 19.5857 109.977 20.2885 110.386 21.1586C110.795 22.0065 111 23.0105 111 24.1707C111 26.4688 110.17 28.2648 108.51 29.5589C106.85 30.853 104.655 31.5 101.926 31.5Z" fill="white"/>
<path d="M14.8235 3.96889V1.01333H11.9412L8.23529 5.06667L7.82353 6.92444L8.64706 5.06667L11.9412 1.68889H14.4118L14.8235 3.96889Z" fill="white"/>
<path fill-rule="evenodd" clip-rule="evenodd" d="M17.7059 38L23.0588 35.4667L28 34.6222L25.9412 2.95556L22.6471 3.37778L19.3529 0L22.6471 3.8L23.0588 34.6222L17.7059 38Z" fill="white"/>
<path d="M17.7059 38L19.3529 0L15.6471 4.22222V5.06667L15.2353 4.22222L9.88235 6.33333V7.6L9.47059 6.33333L5.76471 10.9778L4.94118 16.0444L5.35294 11.4L2.05882 10.9778L0 29.9778L17.7059 38Z" fill="white"/>
<path opacity="0.25" d="M17.7059 38L19.3529 0L22.6471 3.8L23.0588 34.6222L17.7059 38Z" fill="white"/>
<path d="M128 24H125.107L123.01 20.96L120.893 24H118L121.553 18.9L118.155 14H121.049L123.01 16.82L124.971 14H127.845L124.447 18.88L128 24Z" fill="white"/>
<g clip-path="url(#clip0_2636_40940)">
<path d="M216.102 7.01038H237.352V10.9688H228.922V31.7935H224.707V10.9688H216.102V7.01038Z" fill="white"/>
<path d="M181.153 7.01038V10.9688H164.12V17.3367H177.818V21.2951H164.12V27.8351H181.153V31.7935H159.905V10.9688H159.903V7.01038H181.153Z" fill="white"/>
<path d="M191.764 7.02063H186.248L206.005 31.8037H211.537L201.658 19.4207L211.522 7.03954L206.005 7.04814L198.896 15.9592L191.764 7.02063Z" fill="white"/>
<path d="M197.424 24.7234L194.662 21.2572L186.232 31.8227H191.764L197.424 24.7234Z" fill="white"/>
<path fill-rule="evenodd" clip-rule="evenodd" d="M160.052 31.7934L140.269 7H135V31.7831H139.215V12.2974L154.757 31.7934H160.052Z" fill="white"/>
<path d="M238.3 31.642C237.991 31.642 237.728 31.5341 237.508 31.3182C237.289 31.1024 237.18 30.8411 237.183 30.5315C237.18 30.2305 237.289 29.972 237.508 29.7562C237.728 29.5403 237.991 29.4324 238.3 29.4324C238.597 29.4324 238.856 29.5403 239.076 29.7562C239.299 29.972 239.41 30.2305 239.413 30.5315C239.41 30.736 239.359 30.9234 239.256 31.091C239.151 31.2614 239.016 31.3949 238.848 31.4915C238.682 31.5909 238.499 31.642 238.3 31.642Z" fill="white"/>
<path d="M245.494 21.2017H247.361V28.4639C247.359 29.1314 247.216 29.7023 246.936 30.1823C246.653 30.6622 246.262 31.0286 245.759 31.287C245.26 31.5426 244.674 31.6733 244.009 31.6733C243.4 31.6733 242.855 31.5625 242.369 31.3467C241.884 31.1308 241.498 30.8071 241.216 30.381C240.93 29.955 240.79 29.4239 240.79 28.7877H242.661C242.663 29.0661 242.726 29.3074 242.846 29.5091C242.966 29.7108 243.132 29.8641 243.343 29.972C243.557 30.08 243.803 30.1339 244.08 30.1339C244.38 30.1339 244.637 30.0714 244.845 29.9436C245.054 29.8187 245.214 29.6312 245.325 29.3813C245.434 29.1342 245.491 28.8275 245.494 28.4639V21.2017Z" fill="white"/>
<path d="M255.046 24.0418C255.001 23.6016 254.801 23.2579 254.453 23.0137C254.101 22.7666 253.647 22.6445 253.09 22.6445C252.699 22.6445 252.362 22.7041 252.082 22.8206C251.802 22.9398 251.585 23.0989 251.437 23.3005C251.288 23.5022 251.214 23.7322 251.208 23.9907C251.208 24.2066 251.259 24.394 251.36 24.5502C251.46 24.7093 251.594 24.8427 251.768 24.9507C251.939 25.0614 252.131 25.1523 252.339 25.2262C252.55 25.3 252.762 25.3625 252.973 25.4136L253.947 25.655C254.338 25.7459 254.718 25.8681 255.081 26.0243C255.443 26.1776 255.772 26.3736 256.06 26.6093C256.349 26.8451 256.577 27.1291 256.746 27.4614C256.914 27.7937 257 28.1828 257 28.6315C257 29.2364 256.846 29.7676 256.534 30.2277C256.223 30.6849 255.775 31.0428 255.186 31.3012C254.601 31.5569 253.893 31.6875 253.059 31.6875C252.253 31.6875 251.551 31.5626 250.96 31.3126C250.366 31.0655 249.903 30.702 249.569 30.2248C249.235 29.7477 249.055 29.1654 249.029 28.481H250.88C250.906 28.8388 251.02 29.1371 251.214 29.3785C251.411 29.617 251.668 29.7931 251.982 29.9124C252.299 30.0288 252.653 30.0885 253.045 30.0885C253.453 30.0885 253.813 30.026 254.124 29.9039C254.432 29.7817 254.675 29.6114 254.85 29.3898C255.027 29.1711 255.115 28.9127 255.118 28.6173C255.115 28.3475 255.035 28.1231 254.881 27.947C254.724 27.7709 254.507 27.6233 254.23 27.504C253.95 27.3847 253.624 27.2767 253.253 27.183L252.071 26.882C251.217 26.6633 250.54 26.331 250.046 25.8851C249.549 25.4392 249.303 24.8484 249.303 24.1072C249.303 23.4994 249.469 22.9654 249.803 22.5082C250.134 22.0509 250.588 21.6959 251.163 21.4431C251.739 21.1875 252.391 21.0625 253.116 21.0625C253.853 21.0625 254.498 21.1875 255.055 21.4431C255.612 21.6959 256.049 22.0481 256.366 22.4968C256.683 22.9455 256.849 23.4596 256.857 24.0418H255.046Z" fill="white"/>
</g>
<defs>
<clipPath id="clip0_2636_40940">
<rect width="122" height="25" fill="white" transform="translate(135 7)"/>
</clipPath>
</defs>
</svg>
