<svg width="20" height="20" viewBox="0 0 20 20" fill="none" xmlns="http://www.w3.org/2000/svg">
<path d="M17.4883 3.6812C17.4698 3.37645 17.3403 3.08902 17.1245 2.87314C16.9086 2.65725 16.6211 2.52784 16.3164 2.50932C15.3336 2.45073 12.8219 2.54057 10.7375 4.62417L10.3664 4.99995H5.80937C5.64459 4.99902 5.48126 5.03086 5.3289 5.09363C5.17654 5.1564 5.03818 5.24884 4.92187 5.36557L2.24218 8.04682C2.07784 8.21105 1.96253 8.41782 1.90917 8.64394C1.85582 8.87006 1.86654 9.10658 1.94013 9.32695C2.01372 9.54731 2.14727 9.74281 2.32579 9.89149C2.50431 10.0402 2.72073 10.1362 2.95077 10.1687L5.95624 10.5882L9.41015 14.0421L9.82968 17.0492C9.86194 17.2792 9.95791 17.4957 10.1067 17.674C10.2556 17.8524 10.4513 17.9856 10.6719 18.0585C10.8003 18.1015 10.9349 18.1233 11.0703 18.1234C11.2343 18.1237 11.3967 18.0915 11.5483 18.0288C11.6998 17.966 11.8374 17.8739 11.9531 17.7578L14.6344 15.0781C14.7511 14.9618 14.8435 14.8234 14.9063 14.671C14.9691 14.5187 15.0009 14.3554 15 14.1906V9.63354L15.3727 9.26088C17.457 7.17651 17.5469 4.66479 17.4883 3.6812ZM5.80937 6.24995H9.1164L6.02812 9.33745L3.12499 8.93276L5.80937 6.24995ZM11.6227 5.51167C12.2232 4.9074 12.9458 4.43823 13.7422 4.13551C14.5385 3.83278 15.3903 3.70347 16.2406 3.7562C16.2954 4.60696 16.1674 5.4596 15.8653 6.25679C15.5632 7.05399 15.0939 7.77729 14.4891 8.37807L9.99999 12.8656L7.13437 9.99995L11.6227 5.51167ZM13.75 14.1906L11.068 16.8749L10.6625 13.971L13.75 10.8835V14.1906ZM7.95624 14.9328C7.60468 15.7031 6.4289 17.4999 3.12499 17.4999C2.95923 17.4999 2.80026 17.4341 2.68305 17.3169C2.56584 17.1997 2.49999 17.0407 2.49999 16.8749C2.49999 13.571 4.29687 12.3953 5.06718 12.0429C5.14187 12.0089 5.22254 11.9898 5.30458 11.987C5.38661 11.9841 5.46842 11.9974 5.54532 12.0261C5.62222 12.0548 5.6927 12.0984 5.75275 12.1544C5.8128 12.2104 5.86124 12.2776 5.89531 12.3523C5.92937 12.427 5.94838 12.5076 5.95127 12.5897C5.95416 12.6717 5.94086 12.7535 5.91213 12.8304C5.8834 12.9073 5.83981 12.9778 5.78384 13.0379C5.72787 13.0979 5.66062 13.1464 5.58593 13.1804C5.08359 13.4093 3.97499 14.146 3.77968 16.2203C5.8539 16.0249 6.59218 14.9164 6.81952 14.414C6.85359 14.3393 6.90203 14.2721 6.96208 14.2161C7.02213 14.1601 7.09262 14.1165 7.16951 14.0878C7.24641 14.0591 7.32822 14.0458 7.41025 14.0487C7.49229 14.0516 7.57296 14.0706 7.64765 14.1046C7.72234 14.1387 7.78959 14.1871 7.84556 14.2472C7.90153 14.3072 7.94512 14.3777 7.97385 14.4546C8.00258 14.5315 8.01588 14.6133 8.01299 14.6954C8.0101 14.7774 7.99109 14.8581 7.95702 14.9328H7.95624Z" fill="#0A0A0A"/>
</svg>
